<svg xmlns="http://www.w3.org/2000/svg" fill="none" class="icon-social" viewBox="0 0 48 48"><rect width="48" height="48" fill="#0DC143" rx="24"/><path fill="#fff" d="M34.75 13.211c-2.572-2.648-6.129-4.086-9.762-4.086-7.718 0-13.924 6.281-13.848 13.924 0 2.422.681 4.768 1.816 6.887l-1.967 7.189 7.34-1.892c2.043 1.135 4.314 1.665 6.584 1.665 7.643 0 13.848-6.281 13.848-13.924 0-3.709-1.437-7.19-4.01-9.763Zm-9.762 21.341c-2.043 0-4.086-.53-5.826-1.59l-.455-.226-4.389 1.135 1.135-4.314-.302-.454c-3.33-5.373-1.74-12.486 3.708-15.816s12.486-1.74 15.816 3.708c3.33 5.449 1.74 12.487-3.708 15.817-1.74 1.135-3.86 1.74-5.979 1.74Zm6.66-8.4-.832-.378s-1.211-.53-1.968-.909c-.076 0-.151-.075-.227-.075-.227 0-.378.076-.53.151 0 0-.075.076-1.135 1.287a.416.416 0 0 1-.378.227h-.076c-.076 0-.227-.076-.303-.152l-.378-.151c-.833-.378-1.59-.832-2.195-1.438-.151-.151-.378-.302-.53-.454-.53-.53-1.059-1.135-1.437-1.816l-.076-.151c-.076-.076-.076-.152-.151-.303 0-.151 0-.303.075-.378 0 0 .303-.379.53-.606.152-.151.227-.378.379-.53.15-.227.227-.53.15-.756-.075-.379-.983-2.422-1.21-2.876-.151-.227-.303-.303-.53-.379h-.832c-.151 0-.303.076-.454.076l-.076.076c-.151.076-.302.227-.454.303-.151.15-.227.302-.378.454-.53.68-.833 1.513-.833 2.346 0 .605.152 1.21.379 1.74l.075.227a12.607 12.607 0 0 0 2.8 3.86l.303.302c.227.227.454.379.605.606 1.59 1.362 3.406 2.346 5.45 2.875.226.076.529.076.756.152h.757c.378 0 .832-.152 1.135-.303.227-.151.378-.151.53-.303l.15-.151c.152-.151.304-.227.455-.378.151-.152.303-.303.378-.454.152-.303.227-.681.303-1.06v-.53s-.076-.075-.227-.151Z"/></svg>